<?xml version="1.0" encoding="UTF-8"?>
<svg id="Layer_1" data-name="Layer 1" xmlns="http://www.w3.org/2000/svg" viewBox="0 0 179.63 59.54">
  <defs>
    <style>
      .cls-1 {
        fill: #fff;
      }

      .cls-2 {
        fill: #414042;
      }

      .cls-2, .cls-3 {
        fill-rule: evenodd;
      }

      .cls-3 {
        fill: #d8062e;
      }

      .cls-4 {
        fill: none;
        stroke: #cdcdcd;
      }
    </style>
  </defs>
  <rect class="cls-1" x=".37" y=".32" width="179" height="59" rx="4.5" ry="4.5"/>
  <path class="cls-3" d="m45.89,18.62c.17.05.9.51,1.12.63l4.47,2.61c.39.22.76.44,1.12.66l1.12.66c.2.12.37.22.56.32l5.3,3.09c.1.05.2.1.29.17.2.12.37.22.56.32l1.12.66c.2.12.37.22.56.32l1.12.66c.17.1.34.27.34.54v14.77c0,.17-.1.34-.2.41-.1.1-.27.17-.41.24-1.02.61-.88.51-1.83,0-.29-.15-.61-.27-.61-.63-.02-.83,0-1.73,0-2.53v-10.11c0-.95.05-.68-1.12-1.39-1.46-.88-2.95-1.68-4.39-2.56l-3.61-2.1c-.27-.15-.51-.32-.78-.46l-1.15-.68c-.15-.1-.27-.15-.41-.24-.27-.17-.54-.29-.81-.46-.27-.17-.54-.32-.81-.46l-1.61-.95c-.15-.1-.27-.15-.41-.24-.15-.07-.29-.15-.41-.24v16.91c0,1.12.02,1.34.93,1.88l14.64,8.63c.41.24,1,.66,1.49.66.44,0,.78-.22,1.07-.41l15.08-8.89c.95-.58.93-.85.93-1.88v-16.86c-.12.07-.22.12-.34.19l-.66.39c-.66.39-2.34,1.39-2.98,1.73-.63.34-1.37.8-2,1.17l-1.32.78c-.98.58-2,1.15-2.98,1.73-.54.32-.76.07-1.37-.29-.76-.46-.54-.61-.61-1.46-.02-.24,0-.46.1-.61s.22-.19.37-.29l1.32-.76c1.15-.68,2.32-1.32,3.46-2.02.15-.1.27-.17.44-.24.15-.1.29-.17.44-.27l3.05-1.78c.22-.12,2.03-1.22,2.2-1.27-.05-.07-.12-.1-.22-.15l-12.57-6.85c-.41-.24-.85-.44-1.27-.68-.49-.29-1-.56-1.51-.83-.27-.15-.63-.17-.98-.12-.07.02-.2.07-.29.1-.51.24-1,.54-1.51.83l-5.49,3c-.1.05-.15.1-.27.15l-2,1.1c-.1.05-.15.1-.27.15-.68.34-1.78.97-2.54,1.36l-2,1.1c-.17.1-1.37.71-1.46.85Z"/>
  <path class="cls-2" d="m124.69,32.47c0-1.33.41-2.23,1.05-2.94l.1-.1h.02c.58-.54,1.53-.96,2.35-.96.93,0,1.92,0,2.68.44v7.73c-.26.02-.57.1-.84.12-1.44.12-3.14-.02-4.17-1.08-.41-.42-.62-.76-.86-1.3-.22-.54-.33-1.2-.33-1.91Zm6.2-7.07l-.48-.17c-.19-.05-.36-.1-.58-.12-1.63-.27-3.28-.12-4.79.49-1.2.49-2.2,1.33-2.95,2.38-.31.47-.72,1.25-.89,1.82-.07.25-.14.47-.19.74-.36,1.52-.29,3.44.19,4.88.24.71.55,1.3.91,1.84.19.25.29.34.46.54l.69.66c.36.29.65.47,1.05.69.84.47,1.61.66,2.54.86.45.1.89.1,1.22.15.22.02.48.02.65.05l1.94-.05c.19-.02.43-.05.62-.05.19-.02.43-.05.6-.05.67-.07,1.41-.2,2.06-.32l.53-.12c.12-.02.24-.02.24-.12v-20.69c0-.07-.02-.1-.1-.1h-3.76v6.7h.02Zm-32.18,3.19l.89.29v7.75l-.84.12c-.17.02-.31,0-.46.02h-.6c-.69,0-1.25-.1-1.77-.29-.46-.15-.98-.44-1.32-.79-2.85-2.94-.77-8.39,4.1-7.12Zm.89-3.19c-.07-.02-.17-.07-.24-.1-3.59-1.37-7.91.52-9.32,4.12-.1.22-.17.47-.24.69-.6,2.11-.38,4.76.72,6.65.74,1.25,1.89,2.16,3.23,2.7,1.13.47,2.2.64,3.45.69.22,0,.41.05.67.02.48-.05,1.44-.02,1.94-.1.22-.02.41-.02.65-.05.98-.12,1.41-.2,2.4-.39l.58-.12v-20.78h-3.83v6.67Zm5.97.83v19.46h3.86v-16.83c.34-.07.41-.15.93-.25,1.96-.34,4.22.05,5.03,2.13.6,1.59.31,3.9-1.1,5.05-.05.05-.1.07-.14.12-.07.05-.1.07-.17.12-.05.02-.1.05-.17.07-.22.12-.26.17-.55.27-.5.17-1.13.32-1.8.32v3.36c0,.17.5.05.84.05.17,0,.26-.02.46-.02.72-.02,2.11-.37,2.78-.69.12-.07.22-.1.33-.15.14-.07.22-.12.34-.2.22-.12.41-.25.6-.39,1.92-1.47,2.76-3.53,2.76-6.58,0-2.01-.77-4-2.25-5.28-.33-.29-.5-.42-.91-.66-.36-.22-.82-.44-1.22-.59-.62-.22-1.56-.49-2.21-.52-.29,0-.53-.05-.84-.05-1.56,0-2.37.07-3.88.37-.72.15-1.72.42-2.42.71-.17.05-.26.05-.26.15Z"/>
  <path class="cls-4" d="m4.99.5h169.65c2.48,0,4.49,2,4.49,4.46v49.61c0,2.47-2.01,4.46-4.49,4.46H4.99c-2.48,0-4.49-2-4.49-4.46V4.96C.5,2.5,2.51.5,4.99.5Z"/>
</svg>