<svg width="180" height="60" viewBox="0 0 180 60" fill="none" xmlns="http://www.w3.org/2000/svg">
<path d="M0 4C0 1.79086 1.79086 0 4 0H176C178.209 0 180 1.79086 180 4V56C180 58.2091 178.209 60 176 60H4C1.79086 60 0 58.2091 0 56V4Z" fill="#4D148C"/>
<path fill-rule="evenodd" clip-rule="evenodd" d="M141.266 37.8565C143.187 37.8795 144.727 39.4273 144.711 41.3178C144.694 43.2084 143.126 44.7294 141.205 44.7193C139.284 44.7092 137.733 43.1717 137.737 41.2811C137.727 40.3614 138.097 39.4773 138.763 38.8315C139.428 38.1858 140.332 37.8339 141.266 37.8565ZM141.266 38.4054C140.076 38.3657 138.98 39.0407 138.497 40.1116C138.013 41.1825 138.238 42.435 139.066 43.2778C139.893 44.1205 141.157 44.3849 142.262 43.9461C143.366 43.5073 144.089 42.453 144.09 41.2812C144.116 40.5276 143.831 39.7956 143.298 39.2533C142.766 38.711 142.032 38.4049 141.266 38.4054ZM117.718 25.8115L121.819 30.2572L125.765 25.8115H134.193L125.956 34.9252L134.306 44.1153H125.539L121.481 39.6348L117.45 44.1153H108.979L117.252 34.9599L108.987 25.8115H117.718ZM108.986 15.2808V21.7062H99.6054V25.8115H108.986V31.9938H99.6054V37.669H108.986V44.1153H92.7161V15.2808H108.986ZM141.457 39.1624C142.36 39.1624 142.77 39.5514 142.77 40.3017C142.789 40.7286 142.489 41.1057 142.064 41.1908C142.417 41.2464 142.551 41.559 142.622 42.1286C142.648 42.5268 142.739 42.9183 142.89 43.2886H142.184C142.066 42.8306 141.971 42.3669 141.902 41.8993C141.837 41.5769 141.525 41.3621 141.196 41.4131H140.603V43.2956H139.982V39.1277L141.457 39.1624ZM141.309 39.7181H140.525V40.899H141.287C141.887 40.899 142.057 40.5795 142.057 40.3016C142.057 40.0238 141.887 39.7181 141.287 39.7181H141.309Z" fill="#FF6600"/>
<path fill-rule="evenodd" clip-rule="evenodd" d="M81.7239 39.3626C79.2013 39.3626 77.63 37.0775 77.63 34.6967C77.63 32.1449 78.9969 29.6956 81.7239 29.6956C84.4508 29.6956 85.6838 32.1449 85.6838 34.6967C85.6838 37.1117 84.5071 39.3626 81.7239 39.3626ZM57.3861 31.8369C57.7141 30.1161 59.2548 28.8642 61.0572 28.854C62.9048 28.7585 64.5206 30.051 64.7776 31.83L57.3861 31.8369ZM85.9165 15.2808V26.9112H85.846C84.4285 25.3496 82.3491 24.5092 80.209 24.633C75.7064 24.633 72.3172 27.609 71.1264 31.536C69.7664 27.2054 66.2644 24.5509 61.0713 24.5509C56.8436 24.5509 53.5248 26.3912 51.7844 29.3878V25.6592H43.054V21.6159H52.5665V15.2808H35.2891V43.6864H43.04V31.7481H50.7908C50.55 32.6647 50.4293 33.6071 50.4315 34.5531C50.4315 40.4777 55.0961 44.6373 61.0432 44.6373C66.046 44.6373 69.3437 42.3591 71.0911 38.1995H64.4324C63.5305 39.4515 62.847 39.8209 61.0432 39.8209C58.8851 39.7619 57.1642 38.0517 57.1536 35.9555H70.7177C71.3025 40.6624 75.0793 44.7194 80.2583 44.7194C82.4835 44.7224 84.5626 43.6438 85.7967 41.846H85.8671V43.6864H92.7161V15.2808H85.9165Z" fill="white"/>
</svg>
