<svg width="24" height="25" viewBox="0 0 24 25" fill="none" xmlns="http://www.w3.org/2000/svg">
<g clip-path="url(#clip0_9553_12294)">
<path d="M2.66667 3.78784C1.95942 3.78784 1.28115 4.06879 0.781049 4.56889C0.280952 5.06899 0 5.74726 0 6.45451L0 18.4545C0 19.1618 0.280952 19.84 0.781049 20.3401C1.28115 20.8402 1.95942 21.1212 2.66667 21.1212H8V3.78784H2.66667Z" fill="#169B62"/>
<path d="M8 3.78784H16V21.1212H8V3.78784Z" fill="#EEEEEE"/>
<path d="M21.3333 3.78784H16V21.1212H21.3333C22.0406 21.1212 22.7189 20.8402 23.219 20.3401C23.719 19.84 24 19.1618 24 18.4545V6.45451C24 5.74726 23.719 5.06899 23.219 4.56889C22.7189 4.06879 22.0406 3.78784 21.3333 3.78784Z" fill="#FF883E"/>
</g>
<defs>
<clipPath id="clip0_9553_12294">
<rect width="24" height="24" fill="white" transform="translate(0 0.45459)"/>
</clipPath>
</defs>
</svg>
