<svg width="24" height="25" viewBox="0 0 24 25" fill="none" xmlns="http://www.w3.org/2000/svg">
<g clip-path="url(#clip0_9553_12289)">
<path d="M0 6.49384V9.12118H3.752L0 6.49384ZM3.10933 21.1212H8.66667V17.2298L3.10933 21.1212ZM15.3333 17.2305V21.1212H20.89L15.3333 17.2305ZM0 15.7878V18.4152L3.75333 15.7878H0ZM20.8913 3.78784H15.3333V7.67918L20.8913 3.78784ZM24 18.4158V15.7878H20.246L24 18.4158ZM24 9.12118V6.49384L20.2473 9.12118H24ZM8.66667 3.78784H3.10933L8.66667 7.67918V3.78784Z" fill="#00247D"/>
<path d="M16.7598 15.7878L23.2345 20.3218C23.5507 19.9961 23.7779 19.5946 23.8945 19.1558L19.0845 15.7878H16.7598ZM8.66649 15.7878H7.23916L0.765159 20.3212C1.11249 20.6745 1.55783 20.9272 2.05716 21.0445L8.66649 16.4165V15.7878ZM15.3332 9.12117H16.7605L23.2345 4.58784C22.8812 4.22935 22.4334 3.97852 21.9432 3.8645L15.3332 8.4925V9.12117ZM7.23916 9.12117L0.765159 4.58784C0.449128 4.91382 0.221702 5.3152 0.104492 5.75384L4.91449 9.12117H7.23916Z" fill="#CF1B2B"/>
<path d="M24 14.4545H14V21.1212H15.3333V17.2305L20.89 21.1212H21.3333C21.6875 21.1212 22.0381 21.0506 22.3646 20.9133C22.6911 20.776 22.9869 20.5749 23.2347 20.3218L16.76 15.7878H19.0847L23.8947 19.1558C23.9567 18.9312 24 18.6985 24 18.4545V18.4158L20.246 15.7878H24V14.4545ZM0 14.4545V15.7878H3.75333L0 18.4152V18.4545C0 19.1818 0.292667 19.8398 0.765333 20.3212L7.23933 15.7878H8.66667V16.4165L2.05733 21.0438C2.25333 21.0905 2.456 21.1212 2.66667 21.1212H3.10933L8.66667 17.2298V21.1212H10V14.4545H0ZM24 6.45451C24.0004 5.75583 23.7254 5.08514 23.2347 4.58784L16.7607 9.12118H15.3333V8.49251L21.9433 3.86451C21.7436 3.81553 21.5389 3.7898 21.3333 3.78784H20.8913L15.3333 7.67918V3.78784H14V10.4545H24V9.12118H20.2473L24 6.49384V6.45451ZM8.66667 3.78784V7.67918L3.10933 3.78784H2.66667C2.31242 3.78769 1.96171 3.85838 1.63519 3.99577C1.30866 4.13316 1.01291 4.33446 0.765333 4.58784L7.23933 9.12118H4.91467L0.104667 5.75384C0.0385201 5.98165 0.00331561 6.21732 0 6.45451L0 6.49384L3.752 9.12118H0V10.4545H10V3.78784H8.66667Z" fill="#EEEEEE"/>
<path d="M14 10.4545V3.78784H10V10.4545H0V14.4545H10V21.1212H14V14.4545H24V10.4545H14Z" fill="#CF1B2B"/>
</g>
<defs>
<clipPath id="clip0_9553_12289">
<rect width="24" height="24" fill="white" transform="translate(0 0.45459)"/>
</clipPath>
</defs>
</svg>
