<svg width="180" height="60" viewBox="0 0 180 60" fill="none" xmlns="http://www.w3.org/2000/svg">
<path d="M0 4C0 1.79086 1.79086 0 4 0H176C178.209 0 180 1.79086 180 4V56C180 58.2091 178.209 60 176 60H4C1.79086 60 0 58.2091 0 56V4Z" fill="#513628"/>
<path fill-rule="evenodd" clip-rule="evenodd" d="M90.0057 45.6854C90.3072 45.5515 97.5204 42.4125 99.7881 40.5388C102.164 38.5799 103.419 35.7694 103.419 32.3992V16.5823L103.226 16.4728C97.4481 13.3338 90.2952 13.5406 89.9936 13.5528C89.7162 13.5406 82.5633 13.3338 76.7855 16.4728L76.5925 16.5823V32.3992C76.5925 35.7572 77.847 38.5678 80.2112 40.5388C82.4909 42.4125 89.7041 45.5515 90.0057 45.6854Z" fill="#513628"/>
<path fill-rule="evenodd" clip-rule="evenodd" d="M90.0058 45.9772C90.0058 45.9772 82.3584 42.6556 80.0063 40.6968C77.5335 38.6528 76.3394 35.7935 76.3394 32.472V16.1441C82.3705 12.8712 89.9938 13.1267 89.9938 13.1267C89.9938 13.1267 97.6291 12.8712 103.66 16.1441V32.4842C103.66 35.7935 102.466 38.6649 100.005 40.7089C97.6532 42.6435 90.0058 45.9772 90.0058 45.9772ZM77.4249 32.472C77.4249 35.5381 78.5587 38.0809 80.6817 39.8451C82.5996 41.4268 88.3894 44.0549 89.9937 44.7727C91.61 44.0549 97.3999 41.4268 99.3057 39.8451C101.441 38.0809 102.563 35.5259 102.563 32.472V16.3753C94.4929 15.621 84.9638 16.0833 77.4128 23.0671V32.472H77.4249ZM99.2212 32.0096C99.1971 31.2553 98.7749 30.8416 97.7134 30.209C95.7352 29.0409 95.3734 28.0676 95.3734 26.7657C95.3613 24.8069 97.0259 23.651 98.606 23.6024C99.9208 23.5659 100.825 24.0647 101.248 24.3932V26.5102C100.741 25.9871 99.9329 25.5247 99.0885 25.5126C98.413 25.5004 97.7014 25.8046 97.6772 26.6684C97.6548 27.4933 98.2567 27.8459 99.0673 28.3209L99.0676 28.321C99.1297 28.3574 99.193 28.3945 99.2574 28.4326C101.26 29.6249 101.658 30.7078 101.61 32.1191C101.573 33.6643 100.5 35.3677 98.1235 35.3677C97.1706 35.3677 96.2298 35.0635 95.4699 34.6133V32.3746C96.085 32.9222 97.0018 33.3602 97.7737 33.3602C98.6663 33.3723 99.2453 32.8613 99.2212 32.0096ZM89.5353 35.201C89.7761 35.2723 90.1225 35.3312 90.6088 35.3312C93.2867 35.3312 94.8186 32.8978 94.8186 29.3451C94.8186 25.8045 93.2384 23.6023 90.3676 23.6023C89.0528 23.6023 87.9914 23.8944 87.1229 24.4662V40.3074H89.5353V35.201ZM90.3796 25.5735C90.0539 25.5735 89.7162 25.6465 89.5232 25.7438V33.2143C89.692 33.2751 89.9815 33.3603 90.3072 33.3603C91.6944 33.3603 92.3578 32.0706 92.3578 29.4182C92.3578 26.705 91.7788 25.5735 90.3796 25.5735ZM85.8805 34.4065C84.9638 35.0392 83.7214 35.3799 82.2498 35.3799C79.8615 35.3799 78.6552 34.0658 78.6552 31.4986V23.8579H81.0677V31.6081C81.0677 32.3016 81.2245 33.3237 82.3342 33.3237C82.8288 33.3237 83.2147 33.2142 83.4801 33.0317V23.87H85.8805V34.4065ZM98.4251 46.3665V44.7848H98.8714C99.2574 44.7848 99.3901 45.0281 99.3901 45.2471C99.3901 45.4661 99.2454 45.6243 99.0403 45.673C99.0765 45.7338 99.5107 46.3665 99.5107 46.3665H99.173C99.173 46.3665 98.7749 45.746 98.7508 45.7095H98.7146V46.3665H98.4251ZM99.1247 45.235C99.1247 45.1377 99.0885 45.016 98.8472 45.016V45.0039H98.7266V45.4784H98.7628C99.0643 45.4784 99.1247 45.381 99.1247 45.235ZM98.8835 44.2738C98.1718 44.2738 97.5928 44.8578 97.5928 45.5756C97.5928 46.2934 98.1718 46.8775 98.8835 46.8775C99.5952 46.8775 100.174 46.2934 100.174 45.5756C100.174 44.8578 99.5952 44.2738 98.8835 44.2738ZM99.9449 45.5756C99.9449 46.1596 99.4745 46.6462 98.8834 46.6462C98.2924 46.6462 97.8219 46.1596 97.8219 45.5756C97.8219 44.9794 98.2924 44.5049 98.8834 44.5049C99.4745 44.5049 99.9449 44.9916 99.9449 45.5756Z" fill="#FDBD10"/>
</svg>
